<svg viewBox="0 0 512 512" xmlns="http://www.w3.org/2000/svg"><g fill="#ea9c1b"><path d="m281.22 165.34a25.37 25.37 0 0 0 -8.65-5.94 29.35 29.35 0 0 0 -11.49-2.11 28.61 28.61 0 0 0 -12 2.45 27.24 27.24 0 0 0 -9.08 6.62 29.48 29.48 0 0 0 -5.75 9.66 34.25 34.25 0 0 0 0 23.15 28.94 28.94 0 0 0 5.75 9.61 27.61 27.61 0 0 0 9.08 6.57 28.61 28.61 0 0 0 12 2.45 42.85 42.85 0 0 0 10.8-1.28 27.46 27.46 0 0 0 8-3.24v-21.12h-16.25v-6.29h23.28v31.42a45 45 0 0 1 -12.28 5.12 55 55 0 0 1 -13.63 1.67 37.78 37.78 0 0 1 -14.53-2.75 34.32 34.32 0 0 1 -11.5-7.61 34.71 34.71 0 0 1 -7.51-11.54 38.73 38.73 0 0 1 -2.7-14.64 38.15 38.15 0 0 1 2.75-14.64 34.58 34.58 0 0 1 19.11-19.15 37.17 37.17 0 0 1 14.38-2.75 38.75 38.75 0 0 1 14.54 2.49 31.32 31.32 0 0 1 10.61 6.93z"/><path d="m255.82 0-254.65 512h509.3zm0 78.59 84.26 169.41h-168.51zm75.74 259.25h-7.86l-7.7-18.27h-35.92l-7.56 18.27h-7.76l30.06-69.55h6.88zm-143.42-18.52a20.38 20.38 0 0 0 3.19 7.07 16.45 16.45 0 0 0 5.84 5 21.78 21.78 0 0 0 17.88 0 16.54 16.54 0 0 0 5.85-5 20.53 20.53 0 0 0 3.19-7.07 34 34 0 0 0 1-8.2v-42.83h7.07v43.62a40.77 40.77 0 0 1 -1.14 9.19 25 25 0 0 1 -4.08 9 22.75 22.75 0 0 1 -8 6.83q-5.06 2.7-12.82 2.7t-12.86-2.7a23 23 0 0 1 -8-6.83 25 25 0 0 1 -4.08-9 40.74 40.74 0 0 1 -1.13-9.19v-43.62h7.07v42.83a34 34 0 0 0 1.02 8.2zm-71.78 39.68h278.92l58.72 118h-396.33z"/><path d="m313.38 313.09-15.32-36.94-15.32 36.94z"/><path d="m155.33 465.23h-7.07v-30l-26-39.59h8.84l20.9 33.74 21.12-33.7h8.25l-26 39.59z"/><path d="m281.57 430.46a38.14 38.14 0 0 1 -2.75 14.64 34.55 34.55 0 0 1 -19.11 19.15 39 39 0 0 1 -28.79 0 34.55 34.55 0 0 1 -19.11-19.15 40.33 40.33 0 0 1 0-29.27 34.58 34.58 0 0 1 19.11-19.15 39 39 0 0 1 28.79 0 34.58 34.58 0 0 1 19.11 19.15 38.15 38.15 0 0 1 2.75 14.63zm-7.47 0a34.06 34.06 0 0 0 -2-11.57 28.83 28.83 0 0 0 -5.7-9.66 27.24 27.24 0 0 0 -9.08-6.62 30.78 30.78 0 0 0 -24.07 0 27.35 27.35 0 0 0 -9.09 6.62 28.94 28.94 0 0 0 -5.69 9.66 35 35 0 0 0 0 23.15 28.41 28.41 0 0 0 5.69 9.61 27.72 27.72 0 0 0 9.09 6.57 30.74 30.74 0 0 0 24.07 0 27.61 27.61 0 0 0 9.08-6.57 28.3 28.3 0 0 0 5.7-9.61 34.07 34.07 0 0 0 2-11.53z"/><path d="m355.23 453.25h.1l23.28-57.57h10.81v69.55h-7.07v-60.41h-.19l-25.16 60.41h-3.73l-25.15-60.41h-.19v60.41h-7.07v-69.55h10.81z"/></g></svg>